<svg width="8" height="8" viewBox="0 0 8 8" fill="none" xmlns="http://www.w3.org/2000/svg">
<path d="M4.35279 0.333317H4.34229C2.40927 0.3304 0.839957 1.89505 0.83704 3.82807C0.834124 5.76109 2.39877 7.33041 4.33179 7.33332H4.34229C6.27531 7.33624 7.84462 5.7716 7.84754 3.83857C7.85045 1.90555 6.28581 0.336234 4.35279 0.333317ZM5.16946 4.66049C4.94983 4.87895 4.65219 5.00115 4.34229 4.99999C3.698 4.99663 3.17839 4.47164 3.18175 3.82734C3.18335 3.51891 3.30702 3.22374 3.52562 3.00615C3.74277 2.79017 4.03604 2.66826 4.34229 2.66665C4.98658 2.67001 5.50618 3.19501 5.50283 3.8393C5.50123 4.14774 5.37756 4.4429 5.15895 4.66049H5.16946Z" fill="#2196F3"/>
</svg>
